<?xml version="1.0" standalone="no"?>
<!DOCTYPE svg PUBLIC "-//W3C//DTD SVG 1.1//EN" "http://www.w3.org/Graphics/SVG/1.1/DTD/svg11.dtd" >
<svg xmlns="http://www.w3.org/2000/svg">
<metadata>
This is a custom SVG webfont generated by Font Squirrel.
Copyright   : C 1999 Ray Larabie  help from CoolDude
</metadata>
<defs>
<font id="OrangeKidRegular" horiz-adv-x="624" >
<font-face units-per-em="2048" ascent="1638" descent="-410" />
<missing-glyph horiz-adv-x="409" />
<glyph unicode=" "  horiz-adv-x="409" />
<glyph unicode="&#x09;" horiz-adv-x="409" />
<glyph unicode="&#xa0;" horiz-adv-x="409" />
<glyph unicode="!" horiz-adv-x="342" d="M66 -8v180h180v-180h-180zM66 319v1000h180v-1000h-180z" />
<glyph unicode="&#x22;" horiz-adv-x="829" d="M66 975v180h163v328h181v-328h147v328h180v-344h-164v-164h-180v164h-147v-164h-180z" />
<glyph unicode="#" horiz-adv-x="974" d="M55 483v181h164v147h-164v180h164v164h180v-164h148v164h180v-164h164v-180h-164v-147h164v-181h-164v-164h-180v164h-148v-164h-180v164h-164zM399 664h148v147h-148v-147z" />
<glyph unicode="$" horiz-adv-x="962" d="M55 156v344h181v-328h147v475h-164v164h-164v180h164v164h164v164h180v-164h164v-164h164v-180h-180v164h-148v-311h164v-164h164v-344h-164v-164h-164v-328h-180v328h-164v164h-164zM236 827h147v148h-147v-148zM563 172h148v311h-148v-311z" />
<glyph unicode="%" horiz-adv-x="1591" d="M47 647v344h164v164h344v-164h164v-327h147v327h164v164h180v-180h-163v-311h327v-164h164v-344h-164v-164h-344v164h-164v327h-147v-327h-164v-164h-180v180h164v311h-328v164h-164zM227 664h312v311h-312v-311zM555 500h147v147h-147v-147zM883 500h147v147h-147v-147z M1047 172h311v311h-311v-311z" />
<glyph unicode="&#x26;" horiz-adv-x="1122" d="M55 156v508h164v147h-164v344h164v164h344v-164h164v-344h-164v-147h164v-164h147v327h181v-344h-164v-147h164v-344h-181v327h-147v-163h-164v-164h-344v164h-164zM236 172h311v164h164v147h-164v164h-311v-475zM236 827h311v312h-311v-312z" />
<glyph unicode="'" horiz-adv-x="501" d="M66 975v180h163v328h181v-344h-164v-164h-180z" />
<glyph unicode="(" horiz-adv-x="503" d="M-4 156v999h164v328h164v164h180v-181h-164v-327h-164v-967h164v-328h164v-180h-180v164h-164v328h-164z" />
<glyph unicode=")" horiz-adv-x="661" d="M63 -156h164v328h164v967h-164v327h-164v181h181v-164h164v-328h163v-999h-163v-328h-164v-164h-181v180z" />
<glyph unicode="*" horiz-adv-x="686" d="M88 319v181h164v147h-164v180h180v-163h148v163h180v-180h-164v-147h164v-181h-180v164h-148v-164h-180z" />
<glyph unicode="+" horiz-adv-x="663" d="M76 483v181h164v163h180v-163h164v-181h-164v-164h-180v164h-164z" />
<glyph unicode="," horiz-adv-x="503" d="M63 -156h164v328h181v-344h-164v-164h-181v180z" />
<glyph unicode="-" horiz-adv-x="608" d="M-4 483v181h508v-181h-508z" />
<glyph unicode="." horiz-adv-x="354" d="M70 -8v180h180v-180h-180z" />
<glyph unicode="/" horiz-adv-x="770" d="M47 -8v344h164v328h164v327h164v328h180v-344h-164v-328h-164v-328h-164v-327h-180z" />
<glyph unicode="0" horiz-adv-x="825" d="M63 156v999h164v164h344v-164h164v-999h-164v-164h-344v164h-164zM244 172h311v967h-311v-967z" />
<glyph unicode="1" horiz-adv-x="507" d="M66 975v180h163v164h181v-1327h-181v983h-163z" />
<glyph unicode="2" horiz-adv-x="790" d="M51 -8v344h164v328h164v163h164v312h-312v-164h-180v180h164v164h344v-164h164v-344h-164v-164h-164v-328h-164v-147h492v-180h-672z" />
<glyph unicode="3" horiz-adv-x="821" d="M61 156v180h181v-164h311v475h-328v180h328v312h-311v-164h-181v180h164v164h344v-164h164v-344h-164v-147h164v-508h-164v-164h-344v164h-164z" />
<glyph unicode="4" horiz-adv-x="960" d="M53 319v345h164v327h164v164h164v164h180v-819h164v-181h-164v-327h-180v327h-492zM233 500h312v475h-148v-328h-164v-147z" />
<glyph unicode="5" horiz-adv-x="813" d="M59 156v344h181v-328h311v639h-492v508h672v-180h-491v-148h327v-164h164v-671h-164v-164h-344v164h-164z" />
<glyph unicode="6" horiz-adv-x="806" d="M57 156v999h164v164h344v-180h-327v-148h327v-164h164v-671h-164v-164h-344v164h-164zM238 172h311v639h-311v-639z" />
<glyph unicode="7" horiz-adv-x="786" d="M51 1139v180h672v-344h-164v-492h-164v-491h-180v508h164v491h164v148h-492z" />
<glyph unicode="8" horiz-adv-x="821" d="M61 156v508h164v147h-164v344h164v164h344v-164h164v-344h-164v-147h164v-508h-164v-164h-344v164h-164zM242 172h311v475h-311v-475zM242 827h311v312h-311v-312z" />
<glyph unicode="9" horiz-adv-x="825" d="M63 156v180h181v-164h311v311h-328v164h-164v508h164v164h344v-164h164v-999h-164v-164h-344v164h-164zM244 664h311v475h-311v-475z" />
<glyph unicode=":" horiz-adv-x="319" d="M61 -8v180h181v-180h-181zM61 647v180h181v-180h-181z" />
<glyph unicode=";" horiz-adv-x="479" d="M74 -156h164v328h180v-344h-164v-164h-180v180zM238 647v180h180v-180h-180z" />
<glyph unicode="&#x3c;" horiz-adv-x="620" d="M49 156v180h164v164h164v147h-164v164h-164v180h180v-164h164v-163h164v-181h-164v-164h-164v-163h-180z" />
<glyph unicode="=" horiz-adv-x="634" d="M53 319v181h508v-181h-508zM53 647v180h508v-180h-508z" />
<glyph unicode="&#x3e;" horiz-adv-x="645" d="M57 483v181h164v163h164v164h180v-180h-164v-164h-163v-147h163v-164h164v-180h-180v163h-164v164h-164z" />
<glyph unicode="?" horiz-adv-x="784" d="M57 811v344h164v164h344v-164h164v-344h-164v-164h-164v-328h-180v345h164v163h164v312h-311v-328h-181zM221 -8v180h180v-180h-180z" />
<glyph unicode="@" horiz-adv-x="1290" d="M53 319v836h164v164h836v-164h164v-672h-164v-164h-508v164h-164v344h164v164h180v-164h164v-327h147v639h-803v-803h164v-164h656v-180h-672v164h-164v163h-164zM561 500h148v311h-148v-311z" />
<glyph unicode="A" horiz-adv-x="1124" d="M55 -8v508h164v491h164v328h344v-328h164v-491h164v-508h-181v491h-638v-491h-181zM399 664h312v311h-312v-311z" />
<glyph unicode="B" horiz-adv-x="985" d="M61 -8v1327h672v-164h164v-344h-164v-147h164v-508h-164v-164h-672zM242 172h475v475h-475v-475zM242 827h475v312h-475v-312z" />
<glyph unicode="C" horiz-adv-x="901" d="M33 156v999h164v164h508v-164h163v-180h-180v164h-475v-967h475v164h180v-180h-163v-164h-508v164h-164z" />
<glyph unicode="D" horiz-adv-x="966" d="M57 -8v1327h508v-164h164v-164h164v-672h-164v-163h-164v-164h-508zM238 172h311v164h164v639h-164v164h-311v-967z" />
<glyph unicode="E" horiz-adv-x="757" d="M39 -8v1327h672v-180h-492v-312h492v-180h-492v-475h492v-180h-672z" />
<glyph unicode="F" horiz-adv-x="729" d="M33 -8v1327h672v-180h-492v-312h328v-180h-328v-655h-180z" />
<glyph unicode="G" horiz-adv-x="976" d="M57 156v999h164v164h508v-164h164v-180h-180v164h-475v-967h311v164h164v311h-328v180h508v-835h-180v164h-148v-164h-344v164h-164z" />
<glyph unicode="H" horiz-adv-x="999" d="M66 -8v1327h180v-492h475v492h180v-1327h-180v655h-475v-655h-180z" />
<glyph unicode="I" horiz-adv-x="344" d="M66 -8v1327h180v-1327h-180z" />
<glyph unicode="J" horiz-adv-x="831" d="M66 156v344h180v-328h311v1147h180v-1163h-164v-164h-344v164h-163z" />
<glyph unicode="K" horiz-adv-x="933" d="M43 -8v1327h180v-328h148v164h164v164h180v-180h-164v-164h-164v-148h164v-327h164v-328h164v-180h-181v164h-163v327h-164v328h-148v-819h-180z" />
<glyph unicode="L" horiz-adv-x="714" d="M27 -8v1327h180v-1147h491v-180h-671z" />
<glyph unicode="M" horiz-adv-x="1327" d="M66 -8v1327h180v-328h164v-327h163v-328h148v328h164v327h164v328h180v-1327h-180v655h-148v-328h-164v-327h-180v327h-164v328h-147v-655h-180z" />
<glyph unicode="N" horiz-adv-x="999" d="M66 -8v1327h180v-164h164v-328h163v-327h148v819h180v-1327h-180v164h-164v327h-164v328h-147v-819h-180z" />
<glyph unicode="O" horiz-adv-x="989" d="M63 156v999h164v164h508v-164h164v-999h-164v-164h-508v164h-164zM244 172h475v967h-475v-967z" />
<glyph unicode="P" horiz-adv-x="894" d="M33 -8v1327h672v-164h163v-344h-163v-164h-492v-655h-180zM213 827h475v312h-475v-312z" />
<glyph unicode="Q" horiz-adv-x="991" d="M63 156v999h164v164h508v-164h164v-836h-164v-147h164v-180h-180v164h-148v-164h-344v164h-164zM244 172h311v147h-164v181h180v-164h148v803h-475v-967z" />
<glyph unicode="R" horiz-adv-x="978" d="M59 -8v1327h672v-164h164v-344h-164v-475h164v-344h-180v327h-164v328h-311v-655h-181zM240 827h475v312h-475v-312z" />
<glyph unicode="S" horiz-adv-x="964" d="M55 156v344h181v-328h475v475h-492v164h-164v344h164v164h508v-164h164v-180h-180v164h-475v-312h491v-163h164v-508h-164v-164h-508v164h-164z" />
<glyph unicode="T" horiz-adv-x="921" d="M41 1139v180h836v-180h-328v-1147h-180v1147h-328z" />
<glyph unicode="U" horiz-adv-x="995" d="M66 156v1163h180v-1147h475v1147h180v-1163h-164v-164h-508v164h-163z" />
<glyph unicode="V" horiz-adv-x="1126" d="M55 811v508h181v-492h163v-491h312v491h163v492h181v-508h-164v-492h-164v-327h-344v327h-164v492h-164z" />
<glyph unicode="W" horiz-adv-x="1290" d="M55 811v508h181v-492h163v-491h148v983h180v-983h147v491h164v492h181v-508h-164v-492h-164v-327h-180v327h-148v-327h-180v327h-164v492h-164z" />
<glyph unicode="X" horiz-adv-x="968" d="M55 -8v344h164v328h164v147h-164v328h-164v180h181v-164h163v-328h148v328h164v164h180v-180h-164v-328h-164v-147h164v-328h164v-344h-180v327h-164v328h-148v-328h-163v-327h-181z" />
<glyph unicode="Y" horiz-adv-x="931" d="M45 1139v180h180v-164h164v-328h148v328h163v164h181v-180h-164v-328h-164v-819h-180v819h-164v328h-164z" />
<glyph unicode="Z" horiz-adv-x="790" d="M51 -8v344h164v328h164v327h164v148h-492v180h672v-344h-164v-328h-164v-328h-164v-147h492v-180h-672z" />
<glyph unicode="[" horiz-adv-x="475" d="M55 -8v1327h344v-180h-163v-967h163v-180h-344z" />
<glyph unicode="\" horiz-adv-x="768" d="M47 975v344h180v-328h164v-327h164v-328h164v-344h-180v327h-164v328h-164v328h-164z" />
<glyph unicode="]" horiz-adv-x="507" d="M66 -8v180h163v967h-163v180h344v-1327h-344z" />
<glyph unicode="^" horiz-adv-x="964" d="M59 647v180h164v164h164v164h180v-164h164v-164h164v-180h-180v164h-164v164h-148v-164h-163v-164h-181z" />
<glyph unicode="_" horiz-adv-x="882" d="M-2 8h917v-180h-917v180z" />
<glyph unicode="`" horiz-adv-x="659" d="M225 1466v181h181v-164h163v-180h-180v163h-164z" />
<glyph unicode="a" horiz-adv-x="944" d="M53 156v344h164v164h328v147h-328v180h344v-164h164v-655h164v-180h-180v164h-148v-164h-344v164h-164zM233 172h312v311h-312v-311z" />
<glyph unicode="b" horiz-adv-x="788" d="M59 -8v1327h181v-328h327v-164h164v-671h-164v-164h-508zM240 172h311v639h-311v-639z" />
<glyph unicode="c" horiz-adv-x="768" d="M51 156v671h162v164h344v-164h164v-180h-180v164h-312v-639h312v164h180v-180h-164v-164h-344v164h-162z" />
<glyph unicode="d" horiz-adv-x="829" d="M70 156v671h163v164h328v328h180v-1327h-508v164h-163zM250 172h311v639h-311v-639z" />
<glyph unicode="e" horiz-adv-x="792" d="M57 156v671h164v164h344v-164h164v-344h-491v-311h311v164h180v-180h-164v-164h-344v164h-164zM238 664h311v147h-311v-147z" />
<glyph unicode="f" horiz-adv-x="632" d="M59 811v180h164v164h164v164h180v-180h-164v-148h164v-180h-164v-819h-180v819h-164z" />
<glyph unicode="g" horiz-adv-x="825" d="M70 -156h180v-163h311v311h-328v164h-163v671h163v164h508v-1327h-163v-164h-345v164h-163v180zM250 172h311v639h-311v-639z" />
<glyph unicode="h" horiz-adv-x="804" d="M61 -8v1327h181v-328h327v-164h164v-835h-180v819h-311v-819h-181z" />
<glyph unicode="i" horiz-adv-x="335" d="M68 -8v999h180v-999h-180zM68 1139v180h180v-180h-180z" />
<glyph unicode="j" horiz-adv-x="497" d="M68 -319h163v1310h181v-1327h-164v-164h-180v181zM231 1139v180h181v-180h-181z" />
<glyph unicode="k" horiz-adv-x="776" d="M53 -8v1327h180v-655h148v163h164v164h180v-180h-164v-164h-164v-311h164v-164h164v-180h-180v164h-164v163h-148v-327h-180z" />
<glyph unicode="l" horiz-adv-x="337" d="M68 -8v1327h180v-1327h-180z" />
<glyph unicode="m" horiz-adv-x="1308" d="M68 -8v999h505v-164h148v164h344v-164h164v-835h-180v819h-312v-819h-180v819h-311v-819h-178z" />
<glyph unicode="n" horiz-adv-x="817" d="M68 -8v999h505v-164h164v-835h-180v819h-311v-819h-178z" />
<glyph unicode="o" horiz-adv-x="811" d="M66 156v671h163v164h344v-164h164v-671h-164v-164h-344v164h-163zM246 172h311v639h-311v-639z" />
<glyph unicode="p" horiz-adv-x="806" d="M61 -500v1491h508v-164h164v-671h-164v-164h-327v-492h-181zM242 172h311v639h-311v-639z" />
<glyph unicode="q" horiz-adv-x="825" d="M70 156v671h163v164h508v-1491h-180v492h-328v164h-163zM250 172h311v639h-311v-639z" />
<glyph unicode="r" horiz-adv-x="589" d="M45 -8v999h180v-164h148v164h180v-180h-164v-164h-164v-655h-180z" />
<glyph unicode="s" horiz-adv-x="782" d="M55 -8v180h492v311h-328v164h-164v180h164v164h344v-180h-327v-147h327v-164h164v-344h-164v-164h-508z" />
<glyph unicode="t" horiz-adv-x="636" d="M61 811v180h164v328h181v-328h163v-180h-163v-639h163v-180h-180v164h-164v655h-164z" />
<glyph unicode="u" horiz-adv-x="825" d="M70 156v835h180v-819h311v819h180v-999h-508v164h-163z" />
<glyph unicode="v" horiz-adv-x="944" d="M55 647v344h181v-327h163v-328h148v328h164v327h180v-344h-164v-328h-164v-327h-180v327h-164v328h-164z" />
<glyph unicode="w" horiz-adv-x="1271" d="M55 647v344h181v-327h163v-328h148v328h180v-328h147v328h164v327h181v-344h-164v-328h-164v-327h-180v327h-148v-327h-180v327h-164v328h-164z" />
<glyph unicode="x" horiz-adv-x="819" d="M68 -8v508h163v147h-163v344h180v-327h311v327h180v-344h-164v-147h164v-508h-180v491h-311v-491h-180z" />
<glyph unicode="y" horiz-adv-x="825" d="M70 -156h180v-163h311v311h-328v164h-163v835h180v-819h311v819h180v-1327h-163v-164h-345v164h-163v180z" />
<glyph unicode="z" horiz-adv-x="786" d="M55 -8v344h164v164h164v164h164v147h-492v180h672v-344h-164v-164h-164v-164h-163v-147h491v-180h-672z" />
<glyph unicode="{" horiz-adv-x="944" d="M53 -8v344h328v983h180v-164h164v-164h164v-508h-180v328h-148v-492h-164v-327h-344z" />
<glyph unicode="|" horiz-adv-x="344" d="M66 -213v1737h180v-1737h-180z" />
<glyph unicode="}" horiz-adv-x="497" d="M57 483v344h344v-344h-344z" />
<glyph unicode="~" horiz-adv-x="1144" d="M55 483v181h164v163h344v-163h311v163h181v-180h-164v-164h-344v164h-311v-164h-181z" />
<glyph unicode="&#xa1;" horiz-adv-x="342" d="M86 -496h180v1000h-180v-1000zM86 651h180v180h-180v-180z" />
<glyph unicode="&#xa2;" horiz-adv-x="1433" d="M59 -150h162v238h78v57h-80v80h-76v101h78v80h80v77h80v80h76v58h-80v84h-78v79h-80v80h-76v258h76v138h-76v180h238v78h78v77h577v-79h158v-80h78v-78h78v-180h-78v-58h78v-260h-80v-78h-78v-80h-80v-84h-76v-57h78v-80h80v-80h78v-77h78v-181h-80v-80h-78v-77h-78v-60 h80v-78h156v-100h-158v-78h-973v80h-160v100zM242 246h57v57h-57v-57zM242 885h77v-80h78v-80h80v-84h80v-80h158v-78h59v76h160v80h78v84h80v80h79v78h78v139h-57v-76h-98v76h-78v160h-139v-78h-80v-80h-158v-158h-98v176h75v60h-75v78h-62v-76h-78v-158h-98v76h-61v-135z M242 1280h57v57h-57v-57zM322 166h57v57h-57v-57zM322 324h57v57h-57v-57zM401 8h136v58h-136v-58zM401 403h136v58h-136v-58zM479 166h533v57h-533v-57zM559 -14v-136h57v136h-57zM559 324h375v57h-375v-57zM559 1438h57v57h-57v-57zM618 621v104h256v-104h-256zM639 1360 h57v55h-57v-55zM717 1438h57v57h-57v-57zM856 864v176h98v-176h-98zM954 403h138v58h-138v-58zM954 1438h58v57h-58v-57zM1034 -172v-57h58v57h-58zM1114 166h135v137h-135v-137z" />
<glyph unicode="&#xa3;" horiz-adv-x="1470" d="M90 -150h164v80h76v58h-80v157h-76v181h80v80h78v77h78v58h-160v80h-160v659h84v238h80v77h178v-77h60v77h258v-77h57v77h260v-77h57v77h181v-79h75v-338h-75v-58h75v-418h-80v-84h-77v-79h-78v-58h80v-80h80v-77h75v-181h-80v-80h-77v-77h-78v-60h80v-78h155v-100h-157 v-78h-973v80h-160v100zM195 805h75v-164h140v64h-76v256h96v-236h78v-84h80v-98h-76v-80h-80v-139h156v-78h297v76h80v79h98v-155h80v-80h137v137h-76v78h-80v80h-77v80h-80v98h75v84h80v238h99v-236h59v375h-76v237h-80v78h-77v80h-220v-76h-98v76h-217v-76h-80v-80h-80 v-237h-78v-80h-79v-217zM274 166h136v137h-136v-137zM352 8h78v-80h375v78h317v137h-75v80h-140v-76h-336v76h-59v-76h-80v-79h-80v-60zM432 -172v-57h57v57h-57zM569 864v176h99v-176h-99zM649 463v98h256v-98h-256zM649 621v104h256v-104h-256zM887 864v176h98v-176h-98z M1145 641h57v64h-57v-64z" />
<glyph unicode="&#xa4;" />
<glyph unicode="&#xa5;" horiz-adv-x="1464" d="M92 -150h164v158h76v58h-78v79h-78v101h80v80h80v80h78v77h78v58h-80v80h-80v84h-78v159h-78v178h80v160h80v78h78v80h78v137h-78v98h102v-77h57v77h258v-79h80v-80h158v-78h80v-80h78v-80h80v-158h75v-180h-77v-158h-80v-84h-80v-79h-76v-58h80v-80h78v-77h80v-80h75 v-181h-77v-77h-156v-60h78v-78h155v-100h-157v-78h-971v80h-162v100zM276 166h76v-80h62v78h78v80h98v-78h139v57h-76v80h-80v78h-59v-76h-80v-80h-158v-59zM276 885h76v-160h80v-84h80v-80h78v-78h160v-159h59v155h158v80h80v80h77v84h80v158h80v139h-78v158h-78v79h-79v80 h-140v-77h-256v77h-139v-77h-80v-78h-78v-160h-80v-137zM434 8h137v58h-137v-58zM494 1022v98h180v-80h76v-100h-78v-76h-103v158h-75zM594 -14v-136h57v136h-57zM594 1438h57v57h-57v-57zM651 541v98h256v-98h-256zM672 8h57v58h-57v-58zM731 784v99h98v-99h-98zM811 942 v100h78v78h178v-100h-80v-156h-100v78h-76zM831 166h136v137h-58v-78h-78v-59zM909 8h138v135h-58v-75h-80v-60zM989 324h58v57h-58v-57zM1069 -172v-57h55v57h-55zM1147 86h137v137h-78v80h-59v-217z" />
<glyph unicode="&#xa7;" />
<glyph unicode="&#xa8;" horiz-adv-x="1189" d="M305 1456v180h180v-180h-180zM625 1456v180h180v-180h-180z" />
<glyph unicode="&#xaa;" />
<glyph unicode="&#xab;" />
<glyph unicode="&#xac;" />
<glyph unicode="&#xad;" horiz-adv-x="608" d="M-4 483v181h508v-181h-508z" />
<glyph unicode="&#xaf;" />
<glyph unicode="&#xb1;" />
<glyph unicode="&#xb2;" />
<glyph unicode="&#xb3;" />
<glyph unicode="&#xb4;" horiz-adv-x="757" d="M221 1303h180v163h164v181h-180v-164h-164v-180z" />
<glyph unicode="&#xb5;" />
<glyph unicode="&#xb7;" />
<glyph unicode="&#x2219;" />
<glyph unicode="&#xb8;" horiz-adv-x="544" d="M63 -340h164v328h181v-344h-164v-164h-181v180z" />
<glyph unicode="&#xb9;" />
<glyph unicode="&#xba;" horiz-adv-x="811" d="M66 156v671h163v164h344v-164h164v-671h-164v-164h-344v164h-163zM246 172h311v639h-311v-639z" />
<glyph unicode="&#xbb;" />
<glyph unicode="&#xbd;" />
<glyph unicode="&#xbe;" />
<glyph unicode="&#xbf;" horiz-adv-x="784" d="M61 41h164v164h164v327h180v-344h-163v-163h-164v-312h311v328h180v-344h-164v-164h-344v164h-164v344zM389 680v180h180v-180h-180z" />
<glyph unicode="&#xc0;" horiz-adv-x="1124" d="M55 -8v508h164v491h164v328h344v-328h164v-491h164v-508h-181v491h-638v-491h-181zM399 664h312v311h-312v-311zM409 1466v181h181v-164h163v-180h-180v163h-164z" />
<glyph unicode="&#xc1;" horiz-adv-x="1124" d="M55 -8v508h164v491h164v328h344v-328h164v-491h164v-508h-181v491h-638v-491h-181zM399 664h312v311h-312v-311zM385 1303h180v163h164v181h-180v-164h-164v-180z" />
<glyph unicode="&#xc2;" horiz-adv-x="1124" d="M55 -8v508h164v491h164v328h344v-328h164v-491h164v-508h-181v491h-638v-491h-181zM399 664h312v311h-312v-311zM293 1303v180h164v164h180h-180h180v-164h164v-180h-180v163h-148v-163h-180z" />
<glyph unicode="&#xc3;" horiz-adv-x="1124" d="M55 -8v508h164v491h164v328h344v-328h164v-491h164v-508h-181v491h-638v-491h-181zM399 664h312v311h-312v-311zM168 1305v180h164v164h241v-164h209v164h181v-181h-164v-163h-242v163h-209v-163h-180z" />
<glyph unicode="&#xc4;" horiz-adv-x="1124" d="M55 -8v508h164v491h164v328h344v-328h164v-491h164v-508h-181v491h-638v-491h-181zM399 664h312v311h-312v-311zM305 1456v180h180v-180h-180zM625 1456v180h180v-180h-180z" />
<glyph unicode="&#xc5;" horiz-adv-x="1124" d="M55 -8v508h164v491h164v328h344v-328h164v-491h164v-508h-181v491h-638v-491h-181zM399 664h312v311h-312v-311zM381 1313v321h348v-321h-348z" />
<glyph unicode="&#xc6;" horiz-adv-x="1880" d="M26 -8v508h164v491h164v328h344v-328h164v-491h164v-508h-181v491h-638v-491h-181zM370 664h312v311h-312v-311zM850 -8v1327h672v-180h-492v-312h492v-180h-492v-475h492v-180h-672z" />
<glyph unicode="&#xc7;" horiz-adv-x="942" d="M27 156v999h164v164h508v-164h163v-180h-180v164h-475v-967h475v164h180v-180h-163v-164h-508v164h-164zM206 -340h164v328h181v-344h-164v-164h-181v180z" />
<glyph unicode="&#xc8;" horiz-adv-x="757" d="M39 -8v1327h672v-180h-492v-312h492v-180h-492v-475h492v-180h-672zM225 1466v181h181v-164h163v-180h-180v163h-164z" />
<glyph unicode="&#xc9;" horiz-adv-x="757" d="M39 -8v1327h672v-180h-492v-312h492v-180h-492v-475h492v-180h-672zM221 1303h180v163h164v181h-180v-164h-164v-180z" />
<glyph unicode="&#xca;" horiz-adv-x="757" d="M39 -8v1327h672v-180h-492v-312h492v-180h-492v-475h492v-180h-672zM129 1303v180h164v164h180h-180h180v-164h164v-180h-180v163h-148v-163h-180z" />
<glyph unicode="&#xcb;" horiz-adv-x="757" d="M39 -8v1327h672v-180h-492v-312h492v-180h-492v-475h492v-180h-672zM141 1456v180h180v-180h-180zM461 1456v180h180v-180h-180z" />
<glyph unicode="&#xcc;" horiz-adv-x="344" d="M66 -8v1327h180v-1327h-180zM-103 1466v181h181v-164h163v-180h-180v163h-164z" />
<glyph unicode="&#xcd;" horiz-adv-x="344" d="M66 -8v1327h180v-1327h-180zM71 1303h180v163h164v181h-180v-164h-164v-180z" />
<glyph unicode="&#xce;" horiz-adv-x="344" d="M66 -8v1327h180v-1327h-180zM-96 1303v180h164v164h180h-180h180v-164h164v-180h-180v163h-148v-163h-180z" />
<glyph unicode="&#xcf;" horiz-adv-x="344" d="M66 -8v1327h180v-1327h-180zM-105 1456v180h180v-180h-180zM215 1456v180h180v-180h-180z" />
<glyph unicode="&#xd0;" horiz-adv-x="1263" d="M41 586v180h360v-180h-360zM127 -8v1327h508v-164h164v-164h164v-672h-164v-163h-164v-164h-508zM307 172h311v164h164v639h-164v164h-311v-967z" />
<glyph unicode="&#xd1;" horiz-adv-x="999" d="M66 -8v1327h180v-164h164v-328h163v-327h148v819h180v-1327h-180v164h-164v327h-164v328h-147v-819h-180zM86 1305v180h164v164h241v-164h209v164h181v-181h-164v-163h-242v163h-209v-163h-180z" />
<glyph unicode="&#xd2;" horiz-adv-x="989" d="M63 156v999h164v164h508v-164h164v-999h-164v-164h-508v164h-164zM244 172h475v967h-475v-967zM307 1466v181h181v-164h163v-180h-180v163h-164z" />
<glyph unicode="&#xd3;" horiz-adv-x="989" d="M63 156v999h164v164h508v-164h164v-999h-164v-164h-508v164h-164zM244 172h475v967h-475v-967zM303 1303h180v163h164v181h-180v-164h-164v-180z" />
<glyph unicode="&#xd4;" horiz-adv-x="989" d="M63 156v999h164v164h508v-164h164v-999h-164v-164h-508v164h-164zM244 172h475v967h-475v-967zM231 1303v180h164v164h180h-180h180v-164h164v-180h-180v163h-148v-163h-180z" />
<glyph unicode="&#xd5;" horiz-adv-x="989" d="M63 156v999h164v164h508v-164h164v-999h-164v-164h-508v164h-164zM244 172h475v967h-475v-967zM86 1305v180h164v164h241v-164h209v164h181v-181h-164v-163h-242v163h-209v-163h-180z" />
<glyph unicode="&#xd6;" horiz-adv-x="989" d="M63 156v999h164v164h508v-164h164v-999h-164v-164h-508v164h-164zM244 172h475v967h-475v-967zM244 1456v180h180v-180h-180zM564 1456v180h180v-180h-180z" />
<glyph unicode="&#xd8;" horiz-adv-x="989" d="M88 156v999h164v164h508v-164h164v-999h-164v-164h-508v164h-164zM246 174v420h178v176h154v389h167v-389h-167v-176h-154v-420h-178zM268 172h475v967h-475v-967z" />
<glyph unicode="&#xd9;" horiz-adv-x="995" d="M66 156v1163h180v-1147h475v1147h180v-1163h-164v-164h-508v164h-163zM286 1466v181h181v-164h163v-180h-180v163h-164z" />
<glyph unicode="&#xda;" horiz-adv-x="995" d="M66 156v1163h180v-1147h475v1147h180v-1163h-164v-164h-508v164h-163zM344 1303h180v163h164v181h-180v-164h-164v-180z" />
<glyph unicode="&#xdb;" horiz-adv-x="995" d="M66 156v1163h180v-1147h475v1147h180v-1163h-164v-164h-508v164h-163zM231 1303v180h164v164h180h-180h180v-164h164v-180h-180v163h-148v-163h-180z" />
<glyph unicode="&#xdc;" horiz-adv-x="995" d="M66 156v1163h180v-1147h475v1147h180v-1163h-164v-164h-508v164h-163zM223 1456v180h180v-180h-180zM543 1456v180h180v-180h-180z" />
<glyph unicode="&#xdd;" horiz-adv-x="921" d="M45 1139v180h180v-164h164v-328h148v328h163v164h181v-180h-164v-328h-164v-819h-180v819h-164v328h-164zM364 1303h180v163h164v181h-180v-164h-164v-180z" />
<glyph unicode="&#xde;" />
<glyph unicode="&#xdf;" horiz-adv-x="821" d="M61 -8v1163h164v164h344v-164h164v-180h-164v-148h164v-671h-164v-164h-180v180h164v639h-164v180h164v148h-311v-1147h-181z" />
<glyph unicode="&#xe0;" horiz-adv-x="944" d="M53 156v344h164v164h328v147h-328v180h344v-164h164v-655h164v-180h-180v164h-148v-164h-344v164h-164zM233 172h312v311h-312v-311zM225 1261v181h181v-164h163v-180h-180v163h-164z" />
<glyph unicode="&#xe1;" horiz-adv-x="944" d="M53 156v344h164v164h328v147h-328v180h344v-164h164v-655h164v-180h-180v164h-148v-164h-344v164h-164zM233 172h312v311h-312v-311zM221 1098h180v163h164v181h-180v-164h-164v-180z" />
<glyph unicode="&#xe2;" horiz-adv-x="944" d="M53 156v344h164v164h328v147h-328v180h344v-164h164v-655h164v-180h-180v164h-148v-164h-344v164h-164zM233 172h312v311h-312v-311zM129 1098v180h164v164h180h-180h180v-164h164v-180h-180v163h-148v-163h-180z" />
<glyph unicode="&#xe3;" horiz-adv-x="944" d="M53 156v344h164v164h328v147h-328v180h344v-164h164v-655h164v-180h-180v164h-148v-164h-344v164h-164zM233 172h312v311h-312v-311zM66 1100v180h164v164h241v-164h209v164h181v-181h-164v-163h-242v163h-209v-163h-180z" />
<glyph unicode="&#xe4;" horiz-adv-x="944" d="M53 156v344h164v164h328v147h-328v180h344v-164h164v-655h164v-180h-180v164h-148v-164h-344v164h-164zM233 172h312v311h-312v-311zM203 1251v180h180v-180h-180zM523 1251v180h180v-180h-180z" />
<glyph unicode="&#xe5;" horiz-adv-x="944" d="M53 156v344h164v164h328v147h-328v180h344v-164h164v-655h164v-180h-180v164h-148v-164h-344v164h-164zM233 172h312v311h-312v-311zM279 1108v321h348v-321h-348z" />
<glyph unicode="&#xe6;" horiz-adv-x="1271" d="M22 156v344h164v164h328v147h-328v180h344v-164h164v-655h164v-180h-180v164h-148v-164h-344v164h-164zM202 172h312v311h-312v-311zM518 156v671h164v164h344v-164h164v-344h-491v-311h311v164h180v-180h-164v-164h-344v164h-164zM699 664h311v147h-311v-147z" />
<glyph unicode="&#xe7;" horiz-adv-x="774" d="M69 156v671h162v164h344v-164h164v-180h-180v164h-312v-639h312v164h180v-180h-164v-164h-344v164h-162zM227 -340h164v328h181v-344h-164v-164h-181v180z" />
<glyph unicode="&#xe8;" horiz-adv-x="792" d="M57 156v671h164v164h344v-164h164v-344h-491v-311h311v164h180v-180h-164v-164h-344v164h-164zM238 664h311v147h-311v-147zM225 1261v181h181v-164h163v-180h-180v163h-164z" />
<glyph unicode="&#xe9;" horiz-adv-x="792" d="M57 156v671h164v164h344v-164h164v-344h-491v-311h311v164h180v-180h-164v-164h-344v164h-164zM238 664h311v147h-311v-147zM221 1098h180v163h164v181h-180v-164h-164v-180z" />
<glyph unicode="&#xea;" horiz-adv-x="792" d="M57 156v671h164v164h344v-164h164v-344h-491v-311h311v164h180v-180h-164v-164h-344v164h-164zM238 664h311v147h-311v-147zM129 1098v180h164v164h180h-180h180v-164h164v-180h-180v163h-148v-163h-180z" />
<glyph unicode="&#xeb;" horiz-adv-x="792" d="M57 156v671h164v164h344v-164h164v-344h-491v-311h311v164h180v-180h-164v-164h-344v164h-164zM238 664h311v147h-311v-147zM162 1251v180h180v-180h-180zM482 1251v180h180v-180h-180z" />
<glyph unicode="&#xec;" horiz-adv-x="335" d="M68 -8v999h180v-999h-180zM-103 1261v181h181v-164h163v-180h-180v163h-164z" />
<glyph unicode="&#xed;" horiz-adv-x="335" d="M68 -8v999h180v-999h-180zM78 1098h180v163h164v181h-180v-164h-164v-180z" />
<glyph unicode="&#xee;" horiz-adv-x="335" d="M68 -8v999h180v-999h-180zM-96 1098v180h164v164h180h-180h180v-164h164v-180h-180v163h-148v-163h-180z" />
<glyph unicode="&#xef;" horiz-adv-x="335" d="M68 -8v999h180v-999h-180zM-84 1251v180h180v-180h-180zM236 1251v180h180v-180h-180z" />
<glyph unicode="&#xf0;" />
<glyph unicode="&#xf1;" horiz-adv-x="817" d="M68 -8v999h505v-164h164v-835h-180v819h-311v-819h-178zM66 1100v180h164v164h241v-164h209v164h181v-181h-164v-163h-242v163h-209v-163h-180z" />
<glyph unicode="&#xf2;" horiz-adv-x="811" d="M66 156v671h163v164h344v-164h164v-671h-164v-164h-344v164h-163zM246 172h311v639h-311v-639zM225 1261v181h181v-164h163v-180h-180v163h-164z" />
<glyph unicode="&#xf3;" horiz-adv-x="811" d="M66 156v671h163v164h344v-164h164v-671h-164v-164h-344v164h-163zM246 172h311v639h-311v-639zM221 1098h180v163h164v181h-180v-164h-164v-180z" />
<glyph unicode="&#xf4;" horiz-adv-x="811" d="M66 156v671h163v164h344v-164h164v-671h-164v-164h-344v164h-163zM246 172h311v639h-311v-639zM129 1098v180h164v164h180h-180h180v-164h164v-180h-180v163h-148v-163h-180z" />
<glyph unicode="&#xf5;" horiz-adv-x="811" d="M66 156v671h163v164h344v-164h164v-671h-164v-164h-344v164h-163zM246 172h311v639h-311v-639zM25 1100v180h164v164h241v-164h209v164h181v-181h-164v-163h-242v163h-209v-163h-180z" />
<glyph unicode="&#xf6;" horiz-adv-x="811" d="M66 156v671h163v164h344v-164h164v-671h-164v-164h-344v164h-163zM246 172h311v639h-311v-639zM162 1251v180h180v-180h-180zM482 1251v180h180v-180h-180z" />
<glyph unicode="&#xf7;" horiz-adv-x="1454" d="M80 -150h164v238h75v57h-79v80h-76v101h80v80h78v77h79v80h76v58h-78v84h-80v79h-79v80h-76v258h76v58h-76v180h80v80h78v78h79v77h734v-79h79v-80h80v-78h76v-180h-76v-58h76v-260h-80v-78h-78v-80h-79v-84h-76v-57h78v-80h79v-80h80v-77h76v-181h-80v-80h-78v-77h-77 v-60h79v-78h156v-100h-158v-78h-972v80h-160v100zM264 246h55v57h-55v-57zM264 885h76v-80h80v-80h78v-84h80v-80h376v78h78v84h80v80h80v78h78v139h-135v-76h-80v-80h-256v78h-60v-78h-258v78h-80v78h-137v-135zM264 1200h76v-78h139v76h256v-76h60v76h258v-76h139v76h78 v59h-76v158h-80v80h-692v-76h-80v-159h-78v-60zM342 166h57v57h-57v-57zM422 8h135v58h-135v-58zM502 1042h76v-79h139v137h-215v-58zM580 -14v-136h57v136h-57zM580 166h137v78h98v-78h139v215h-57v-76h-98v76h-60v-76h-100v76h-59v-215zM639 621v104h256v-104h-256z M817 1042h78v-79h137v137h-215v-58zM1055 -172v-57h57v57h-57zM1135 166h135v137h-76v78h-59v-215z" />
<glyph unicode="&#xf8;" horiz-adv-x="811" d="M94 156v671h164v164h344v-164h164v-671h-164v-164h-344v164h-164zM252 174v344h154v316h192v-363h-158v-297h-188zM274 172h312v639h-312v-639z" />
<glyph unicode="&#xf9;" horiz-adv-x="825" d="M70 156v835h180v-819h311v819h180v-999h-508v164h-163zM225 1261v181h181v-164h163v-180h-180v163h-164z" />
<glyph unicode="&#xfa;" horiz-adv-x="825" d="M70 156v835h180v-819h311v819h180v-999h-508v164h-163zM221 1098h180v163h164v181h-180v-164h-164v-180z" />
<glyph unicode="&#xfb;" horiz-adv-x="825" d="M70 156v835h180v-819h311v819h180v-999h-508v164h-163zM129 1098v180h164v164h180h-180h180v-164h164v-180h-180v163h-148v-163h-180z" />
<glyph unicode="&#xfc;" horiz-adv-x="825" d="M70 156v835h180v-819h311v819h180v-999h-508v164h-163zM182 1251v180h180v-180h-180zM502 1251v180h180v-180h-180z" />
<glyph unicode="&#xfd;" horiz-adv-x="847" d="M70 -156h180v-163h311v311h-328v164h-163v835h180v-819h311v819h180v-1327h-163v-164h-345v164h-163v180zM221 1098h180v163h164v181h-180v-164h-164v-180z" />
<glyph unicode="&#xfe;" />
<glyph unicode="&#xff;" horiz-adv-x="825" d="M70 -156h180v-163h311v311h-328v164h-163v835h180v-819h311v819h180v-1327h-163v-164h-345v164h-163v180zM162 1251v180h180v-180h-180zM482 1251v180h180v-180h-180z" />
<glyph unicode="&#x131;" horiz-adv-x="335" d="M68 -8v999h180v-999h-180z" />
<glyph unicode="&#x152;" horiz-adv-x="1456" d="M55 156v999h164v164h508v-164h164v-999h-164v-164h-508v164h-164zM236 172h475v967h-475v-967zM711 -8v1327h672v-180h-492v-312h492v-180h-492v-475h492v-180h-672z" />
<glyph unicode="&#x153;" horiz-adv-x="1290" d="M58 156v671h163v164h344v-164h164v-671h-164v-164h-344v164h-163zM238 172h311v639h-311v-639zM542 156v671h164v164h344v-164h164v-344h-491v-311h311v164h180v-180h-164v-164h-344v164h-164zM723 664h311v147h-311v-147z" />
<glyph unicode="&#x178;" horiz-adv-x="931" d="M31 1139v180h180v-164h164v-328h148v328h163v164h181v-180h-164v-328h-164v-819h-180v819h-164v328h-164zM223 1456v180h180v-180h-180zM543 1456v180h180v-180h-180z" />
<glyph unicode="&#x2c6;" horiz-adv-x="837" d="M129 1303v180h164v164h180h-180h180v-164h164v-180h-180v163h-148v-163h-180z" />
<glyph unicode="&#x2da;" horiz-adv-x="1169" d="M381 1313v321h348v-321h-348z" />
<glyph unicode="&#x2dc;" horiz-adv-x="1140" d="M168 1305v180h164v164h241v-164h209v164h181v-181h-164v-163h-242v163h-209v-163h-180z" />
<glyph unicode="&#x2000;" horiz-adv-x="823" />
<glyph unicode="&#x2001;" horiz-adv-x="1648" />
<glyph unicode="&#x2002;" horiz-adv-x="823" />
<glyph unicode="&#x2003;" horiz-adv-x="1648" />
<glyph unicode="&#x2004;" horiz-adv-x="548" />
<glyph unicode="&#x2005;" horiz-adv-x="411" />
<glyph unicode="&#x2006;" horiz-adv-x="274" />
<glyph unicode="&#x2007;" horiz-adv-x="274" />
<glyph unicode="&#x2008;" horiz-adv-x="204" />
<glyph unicode="&#x2009;" horiz-adv-x="329" />
<glyph unicode="&#x200a;" horiz-adv-x="90" />
<glyph unicode="&#x2010;" horiz-adv-x="608" d="M-4 483v181h508v-181h-508z" />
<glyph unicode="&#x2011;" horiz-adv-x="608" d="M-4 483v181h508v-181h-508z" />
<glyph unicode="&#x2012;" horiz-adv-x="608" d="M-4 483v181h508v-181h-508z" />
<glyph unicode="&#x2013;" />
<glyph unicode="&#x2014;" />
<glyph unicode="&#x2018;" horiz-adv-x="466" d="M80 1139h164v-164h180v180h-164v328h-180v-344z" />
<glyph unicode="&#x2019;" horiz-adv-x="473" d="M63 1155h164v328h181v-344h-164v-164h-181v180z" />
<glyph unicode="&#x201a;" />
<glyph unicode="&#x201c;" horiz-adv-x="827" d="M80 1139h164v-164h180v180h-164v328h-180v-344zM408 1139h163v-164h181v180h-164v328h-180v-344z" />
<glyph unicode="&#x201d;" horiz-adv-x="804" d="M63 1155h164v328h181v-344h-164v-164h-181v180zM391 1155h164v328h181v-344h-164v-164h-181v180z" />
<glyph unicode="&#x201e;" />
<glyph unicode="&#x2022;" horiz-adv-x="813" d="M57 483v344h164v164h344v-164h164v-344h-164v-164h-344v164h-164z" />
<glyph unicode="&#x2026;" horiz-adv-x="1073" d="M70 -8v180h180v-180h-180zM410 -8v180h180v-180h-180zM750 -8v180h180v-180h-180z" />
<glyph unicode="&#x202f;" horiz-adv-x="329" />
<glyph unicode="&#x2039;" horiz-adv-x="620" d="M49 156v180h164v164h164v147h-164v164h-164v180h180v-164h164v-163h164v-181h-164v-164h-164v-163h-180z" />
<glyph unicode="&#x203a;" horiz-adv-x="645" d="M57 483v181h164v163h164v164h180v-180h-164v-164h-163v-147h163v-164h164v-180h-180v163h-164v164h-164z" />
<glyph unicode="&#x205f;" horiz-adv-x="411" />
<glyph unicode="&#x2122;" horiz-adv-x="2248" d="M988 -8v1327h180v-328h164v-327h163v-328h148v328h164v327h164v328h180v-1327h-180v655h-148v-328h-164v-327h-180v327h-164v328h-147v-655h-180zM41 1139v180h836v-180h-328v-1147h-180v1147h-328z" />
<glyph unicode="&#xe000;" horiz-adv-x="990" d="M0 990h990v-990h-990v990z" />
<glyph unicode="&#xfb01;" horiz-adv-x="968" d="M701 -8v999h180v-999h-180zM701 1139v180h180v-180h-180zM59 811v180h164v164h164v164h180v-180h-164v-148h164v-180h-164v-819h-180v819h-164z" />
<glyph unicode="&#xfb02;" horiz-adv-x="970" d="M701 -8v1327h180v-1327h-180zM59 811v180h164v164h164v164h180v-180h-164v-148h164v-180h-164v-819h-180v819h-164z" />
<glyph unicode="&#xfb03;" horiz-adv-x="1601" d="M1334 -8v999h180v-999h-180zM1334 1139v180h180v-180h-180zM692 811v180h164v164h164v164h180v-180h-164v-148h164v-180h-164v-819h-180v819h-164zM59 811v180h164v164h164v164h180v-180h-164v-148h164v-180h-164v-819h-180v819h-164z" />
<glyph unicode="&#xfb04;" horiz-adv-x="1603" d="M1334 -8v1327h180v-1327h-180zM692 811v180h164v164h164v164h180v-180h-164v-148h164v-180h-164v-819h-180v819h-164zM59 811v180h164v164h164v164h180v-180h-164v-148h164v-180h-164v-819h-180v819h-164z" />
</font>
</defs>
</svg>
